<svg width="34" height="34" viewBox="0 0 34 34" fill="none" xmlns="http://www.w3.org/2000/svg">
<path d="M8 9C8 7.895 8.895 7 10 7L24 7C25.105 7 26 7.895 26 9C26 10.105 25.105 11 24 11L10 11C8.895 11 8 10.105 8 9Z" fill="#22A2BD" stroke="#22A2BD" stroke-width="1.5" stroke-linecap="round" stroke-linejoin="round"/>
<path d="M7.99999 17C7.99999 15.895 8.89499 15 9.99999 15L18.316 15C19.421 15 20.316 15.895 20.316 17C20.316 18.105 19.421 19 18.316 19L9.99999 19C8.89499 19 7.99999 18.105 7.99999 17Z" fill="#22A2BD" stroke="#22A2BD" stroke-width="1.5" stroke-linecap="round" stroke-linejoin="round"/>
<path d="M8 25C8 23.895 8.895 23 10 23L12.632 23C13.737 23 14.632 23.895 14.632 25C14.632 26.105 13.737 27 12.632 27L10 27C8.895 27 8 26.105 8 25Z" fill="#22A2BD" stroke="#22A2BD" stroke-width="1.5" stroke-linecap="round" stroke-linejoin="round"/>
</svg>
